# xmcd CD database file
#
# Track frame offsets:
#	150
#	21063
#	47638
#	67671
#	90851
#	113067
#	125606
#	147252
#	163100
#	194470
#	211998
#	227887
#
# Disc length: 3488 seconds
#
# Revision: 0
# Processed by: cddbd v1.5.2PL0 Copyright (c) Steve Scherf et al.
# Submitted via: CDex 1.51
#
DISCID=9c0d9e0c
DTITLE=Various Artist - Dinner At 8
DYEAR=2005
DGENRE=Jazz
TTITLE0=Dance Til The Morning Sun
TTITLE1=Whatcha See Is Whatcha Get
TTITLE2=Temptation
TTITLE3=Senor Blues
TTITLE4=Here Is Everything
TTITLE5=Fever
TTITLE6=Just One Of Those Things (Brazilian Gir;s Remix)
TTITLE7=Hit The Ground
TTITLE8=Creepin'
TTITLE9=Stay Loose
TTITLE10=Sing, Sing, Sing
TTITLE11=Thieves In The Temple
EXTD=YEAR: 2005
EXTT0=
EXTT1=
EXTT2=
EXTT3=
EXTT4=
EXTT5=
EXTT6=
EXTT7=
EXTT8=
EXTT9=
EXTT10=
EXTT11=
PLAYORDER=
